<mxfile host="app.diagrams.net" modified="2024-05-31T18:05:21.606Z" agent="Mozilla/5.0 (Windows NT 10.0; Win64; x64) AppleWebKit/537.36 (KHTML, like Gecko) Chrome/125.0.0.0 Safari/537.36" etag="wltj8XDtc7GLA3_KsXRa" version="24.4.8" type="device">
  <diagram name="Page-1" id="4JS9vkaPfXyqPh0Q_p2Q">
    <mxGraphModel dx="1050" dy="1630" grid="1" gridSize="10" guides="1" tooltips="1" connect="1" arrows="1" fold="1" page="1" pageScale="1" pageWidth="850" pageHeight="1100" math="0" shadow="0">
      <root>
        <mxCell id="0" />
        <mxCell id="1" parent="0" />
        <mxCell id="YYWawuFabs4Q9kmvaKkn-60" value="" style="rounded=0;whiteSpace=wrap;html=1;fillColor=none;" parent="1" vertex="1">
          <mxGeometry x="180" y="-20" width="780" height="1040" as="geometry" />
        </mxCell>
        <mxCell id="YYWawuFabs4Q9kmvaKkn-58" value="" style="ellipse;whiteSpace=wrap;html=1;" parent="1" vertex="1">
          <mxGeometry x="355" y="790" width="145" height="90" as="geometry" />
        </mxCell>
        <mxCell id="YYWawuFabs4Q9kmvaKkn-39" value="" style="ellipse;whiteSpace=wrap;html=1;" parent="1" vertex="1">
          <mxGeometry x="355" y="692.5" width="120" height="80" as="geometry" />
        </mxCell>
        <mxCell id="YYWawuFabs4Q9kmvaKkn-1" value="" style="ellipse;whiteSpace=wrap;html=1;" parent="1" vertex="1">
          <mxGeometry x="220" y="140" width="120" height="80" as="geometry" />
        </mxCell>
        <mxCell id="YYWawuFabs4Q9kmvaKkn-3" value="Tourist" style="shape=umlActor;verticalLabelPosition=bottom;verticalAlign=top;html=1;outlineConnect=0;" parent="1" vertex="1">
          <mxGeometry x="80" y="260" width="30" height="60" as="geometry" />
        </mxCell>
        <mxCell id="YYWawuFabs4Q9kmvaKkn-5" value="Guide" style="shape=umlActor;verticalLabelPosition=bottom;verticalAlign=top;html=1;outlineConnect=0;" parent="1" vertex="1">
          <mxGeometry x="1020" y="380" width="30" height="60" as="geometry" />
        </mxCell>
        <mxCell id="YYWawuFabs4Q9kmvaKkn-8" value="System" style="shape=umlActor;verticalLabelPosition=bottom;verticalAlign=top;html=1;outlineConnect=0;" parent="1" vertex="1">
          <mxGeometry x="80" y="470" width="30" height="60" as="geometry" />
        </mxCell>
        <mxCell id="YYWawuFabs4Q9kmvaKkn-9" value="Create Complex tour request" style="text;html=1;align=center;verticalAlign=middle;whiteSpace=wrap;rounded=0;" parent="1" vertex="1">
          <mxGeometry x="250" y="165" width="60" height="30" as="geometry" />
        </mxCell>
        <mxCell id="YYWawuFabs4Q9kmvaKkn-10" value="" style="endArrow=none;html=1;rounded=0;entryX=0.037;entryY=0.735;entryDx=0;entryDy=0;entryPerimeter=0;" parent="1" target="YYWawuFabs4Q9kmvaKkn-1" edge="1">
          <mxGeometry width="50" height="50" relative="1" as="geometry">
            <mxPoint x="130" y="290" as="sourcePoint" />
            <mxPoint x="190" y="210" as="targetPoint" />
          </mxGeometry>
        </mxCell>
        <mxCell id="YYWawuFabs4Q9kmvaKkn-13" value="" style="html=1;labelBackgroundColor=#ffffff;startArrow=none;startFill=0;startSize=6;endArrow=classic;endFill=1;endSize=6;jettySize=auto;orthogonalLoop=1;strokeWidth=1;dashed=1;fontSize=14;rounded=0;entryX=1;entryY=0.5;entryDx=0;entryDy=0;exitX=0;exitY=0.5;exitDx=0;exitDy=0;" parent="1" source="YYWawuFabs4Q9kmvaKkn-15" target="YYWawuFabs4Q9kmvaKkn-1" edge="1">
          <mxGeometry width="60" height="60" relative="1" as="geometry">
            <mxPoint x="430" y="180" as="sourcePoint" />
            <mxPoint x="350" y="185" as="targetPoint" />
          </mxGeometry>
        </mxCell>
        <mxCell id="YYWawuFabs4Q9kmvaKkn-14" value="&amp;lt;&amp;lt;extend&amp;gt;&amp;gt;" style="text;html=1;align=center;verticalAlign=middle;whiteSpace=wrap;rounded=0;" parent="1" vertex="1">
          <mxGeometry x="365" y="150" width="60" height="30" as="geometry" />
        </mxCell>
        <mxCell id="YYWawuFabs4Q9kmvaKkn-15" value="" style="ellipse;whiteSpace=wrap;html=1;" parent="1" vertex="1">
          <mxGeometry x="430" y="140" width="120" height="80" as="geometry" />
        </mxCell>
        <mxCell id="YYWawuFabs4Q9kmvaKkn-16" value="View all complex tour requests" style="text;html=1;align=center;verticalAlign=middle;whiteSpace=wrap;rounded=0;" parent="1" vertex="1">
          <mxGeometry x="460" y="165" width="60" height="30" as="geometry" />
        </mxCell>
        <mxCell id="YYWawuFabs4Q9kmvaKkn-17" value="" style="html=1;labelBackgroundColor=#ffffff;startArrow=none;startFill=0;startSize=6;endArrow=classic;endFill=1;endSize=6;jettySize=auto;orthogonalLoop=1;strokeWidth=1;dashed=1;fontSize=14;rounded=0;entryX=1;entryY=0.5;entryDx=0;entryDy=0;exitX=0;exitY=0.5;exitDx=0;exitDy=0;" parent="1" source="YYWawuFabs4Q9kmvaKkn-19" target="YYWawuFabs4Q9kmvaKkn-15" edge="1">
          <mxGeometry width="60" height="60" relative="1" as="geometry">
            <mxPoint x="640" y="180" as="sourcePoint" />
            <mxPoint x="570" y="179" as="targetPoint" />
          </mxGeometry>
        </mxCell>
        <mxCell id="YYWawuFabs4Q9kmvaKkn-18" value="&amp;lt;&amp;lt;extend&amp;gt;&amp;gt;" style="text;html=1;align=center;verticalAlign=middle;whiteSpace=wrap;rounded=0;" parent="1" vertex="1">
          <mxGeometry x="570" y="150" width="60" height="30" as="geometry" />
        </mxCell>
        <mxCell id="YYWawuFabs4Q9kmvaKkn-19" value="View all tour requests in complex tour request" style="ellipse;whiteSpace=wrap;html=1;" parent="1" vertex="1">
          <mxGeometry x="640" y="140" width="110" height="80" as="geometry" />
        </mxCell>
        <mxCell id="YYWawuFabs4Q9kmvaKkn-21" value="" style="endArrow=none;html=1;rounded=0;entryX=0;entryY=0.5;entryDx=0;entryDy=0;" parent="1" target="YYWawuFabs4Q9kmvaKkn-22" edge="1">
          <mxGeometry width="50" height="50" relative="1" as="geometry">
            <mxPoint x="140" y="490" as="sourcePoint" />
            <mxPoint x="220" y="505" as="targetPoint" />
          </mxGeometry>
        </mxCell>
        <mxCell id="YYWawuFabs4Q9kmvaKkn-22" value="" style="ellipse;whiteSpace=wrap;html=1;" parent="1" vertex="1">
          <mxGeometry x="400" y="390" width="130" height="80" as="geometry" />
        </mxCell>
        <mxCell id="YYWawuFabs4Q9kmvaKkn-23" value="Check if there are all conditions to invalidate complex tour request" style="text;html=1;align=center;verticalAlign=middle;whiteSpace=wrap;rounded=0;" parent="1" vertex="1">
          <mxGeometry x="377.5" y="810" width="100" height="52.5" as="geometry" />
        </mxCell>
        <mxCell id="YYWawuFabs4Q9kmvaKkn-24" value="" style="ellipse;whiteSpace=wrap;html=1;" parent="1" vertex="1">
          <mxGeometry x="460" y="485" width="120" height="80" as="geometry" />
        </mxCell>
        <mxCell id="YYWawuFabs4Q9kmvaKkn-25" value="" style="endArrow=none;html=1;rounded=0;entryX=0;entryY=0.5;entryDx=0;entryDy=0;" parent="1" target="YYWawuFabs4Q9kmvaKkn-24" edge="1">
          <mxGeometry width="50" height="50" relative="1" as="geometry">
            <mxPoint x="140" y="490" as="sourcePoint" />
            <mxPoint x="252" y="459" as="targetPoint" />
          </mxGeometry>
        </mxCell>
        <mxCell id="YYWawuFabs4Q9kmvaKkn-27" value="Check if tourist is eligible for free voucher" style="text;html=1;align=center;verticalAlign=middle;whiteSpace=wrap;rounded=0;" parent="1" vertex="1">
          <mxGeometry x="385" y="717.5" width="60" height="30" as="geometry" />
        </mxCell>
        <mxCell id="YYWawuFabs4Q9kmvaKkn-29" value="" style="endArrow=none;html=1;rounded=0;" parent="1" target="YYWawuFabs4Q9kmvaKkn-30" edge="1">
          <mxGeometry width="50" height="50" relative="1" as="geometry">
            <mxPoint x="1010" y="410" as="sourcePoint" />
            <mxPoint x="890" y="410" as="targetPoint" />
          </mxGeometry>
        </mxCell>
        <mxCell id="YYWawuFabs4Q9kmvaKkn-30" value="" style="ellipse;whiteSpace=wrap;html=1;" parent="1" vertex="1">
          <mxGeometry x="680" y="290" width="120" height="80" as="geometry" />
        </mxCell>
        <mxCell id="YYWawuFabs4Q9kmvaKkn-31" value="Quit job" style="text;html=1;align=center;verticalAlign=middle;whiteSpace=wrap;rounded=0;" parent="1" vertex="1">
          <mxGeometry x="710" y="315" width="60" height="30" as="geometry" />
        </mxCell>
        <mxCell id="YYWawuFabs4Q9kmvaKkn-32" value="" style="html=1;labelBackgroundColor=#ffffff;startArrow=none;startFill=0;startSize=6;endArrow=classic;endFill=1;endSize=6;jettySize=auto;orthogonalLoop=1;strokeWidth=1;dashed=1;fontSize=14;rounded=0;exitX=0;exitY=0.5;exitDx=0;exitDy=0;" parent="1" source="YYWawuFabs4Q9kmvaKkn-30" target="YYWawuFabs4Q9kmvaKkn-34" edge="1">
          <mxGeometry width="60" height="60" relative="1" as="geometry">
            <mxPoint x="650" y="329.5" as="sourcePoint" />
            <mxPoint x="600" y="330" as="targetPoint" />
          </mxGeometry>
        </mxCell>
        <mxCell id="YYWawuFabs4Q9kmvaKkn-34" value="" style="ellipse;whiteSpace=wrap;html=1;" parent="1" vertex="1">
          <mxGeometry x="490" y="290" width="120" height="80" as="geometry" />
        </mxCell>
        <mxCell id="YYWawuFabs4Q9kmvaKkn-35" value="Give voucher to affected tourists" style="text;html=1;align=center;verticalAlign=middle;whiteSpace=wrap;rounded=0;" parent="1" vertex="1">
          <mxGeometry x="520" y="315" width="60" height="30" as="geometry" />
        </mxCell>
        <mxCell id="YYWawuFabs4Q9kmvaKkn-37" value="" style="endArrow=none;html=1;rounded=0;entryX=0;entryY=0.5;entryDx=0;entryDy=0;" parent="1" target="YYWawuFabs4Q9kmvaKkn-34" edge="1">
          <mxGeometry width="50" height="50" relative="1" as="geometry">
            <mxPoint x="140" y="490" as="sourcePoint" />
            <mxPoint x="250" y="450" as="targetPoint" />
          </mxGeometry>
        </mxCell>
        <mxCell id="YYWawuFabs4Q9kmvaKkn-38" value="&amp;lt;&amp;lt;include&amp;gt;&amp;gt;" style="text;html=1;align=center;verticalAlign=middle;whiteSpace=wrap;rounded=0;" parent="1" vertex="1">
          <mxGeometry x="620" y="300" width="60" height="30" as="geometry" />
        </mxCell>
        <mxCell id="YYWawuFabs4Q9kmvaKkn-40" value="Cancel tours guided by quited guide" style="text;html=1;align=center;verticalAlign=middle;whiteSpace=wrap;rounded=0;" parent="1" vertex="1">
          <mxGeometry x="435" y="415" width="60" height="30" as="geometry" />
        </mxCell>
        <mxCell id="YYWawuFabs4Q9kmvaKkn-41" value="" style="endArrow=none;html=1;rounded=0;entryX=0.033;entryY=0.32;entryDx=0;entryDy=0;entryPerimeter=0;" parent="1" target="YYWawuFabs4Q9kmvaKkn-39" edge="1">
          <mxGeometry width="50" height="50" relative="1" as="geometry">
            <mxPoint x="140" y="490" as="sourcePoint" />
            <mxPoint x="300" y="588" as="targetPoint" />
          </mxGeometry>
        </mxCell>
        <mxCell id="YYWawuFabs4Q9kmvaKkn-42" value="" style="html=1;labelBackgroundColor=#ffffff;startArrow=none;startFill=0;startSize=6;endArrow=classic;endFill=1;endSize=6;jettySize=auto;orthogonalLoop=1;strokeWidth=1;dashed=1;fontSize=14;rounded=0;entryX=0.957;entryY=0.34;entryDx=0;entryDy=0;exitX=0;exitY=1;exitDx=0;exitDy=0;entryPerimeter=0;" parent="1" source="YYWawuFabs4Q9kmvaKkn-30" target="YYWawuFabs4Q9kmvaKkn-22" edge="1">
          <mxGeometry width="60" height="60" relative="1" as="geometry">
            <mxPoint x="580" y="525" as="sourcePoint" />
            <mxPoint x="490" y="525" as="targetPoint" />
          </mxGeometry>
        </mxCell>
        <mxCell id="YYWawuFabs4Q9kmvaKkn-43" value="&amp;lt;&amp;lt;include&amp;gt;&amp;gt;" style="text;html=1;align=center;verticalAlign=middle;whiteSpace=wrap;rounded=0;rotation=-15;" parent="1" vertex="1">
          <mxGeometry x="590" y="360" width="60" height="30" as="geometry" />
        </mxCell>
        <mxCell id="YYWawuFabs4Q9kmvaKkn-44" value="" style="ellipse;whiteSpace=wrap;html=1;" parent="1" vertex="1">
          <mxGeometry x="370" y="590" width="120" height="80" as="geometry" />
        </mxCell>
        <mxCell id="YYWawuFabs4Q9kmvaKkn-45" value="Check if guide has all conditions for Super guide" style="text;html=1;align=center;verticalAlign=middle;whiteSpace=wrap;rounded=0;" parent="1" vertex="1">
          <mxGeometry x="395" y="615" width="70" height="30" as="geometry" />
        </mxCell>
        <mxCell id="YYWawuFabs4Q9kmvaKkn-46" value="" style="endArrow=none;html=1;rounded=0;" parent="1" target="YYWawuFabs4Q9kmvaKkn-44" edge="1">
          <mxGeometry width="50" height="50" relative="1" as="geometry">
            <mxPoint x="140" y="490" as="sourcePoint" />
            <mxPoint x="340" y="641" as="targetPoint" />
          </mxGeometry>
        </mxCell>
        <mxCell id="YYWawuFabs4Q9kmvaKkn-52" value="" style="ellipse;whiteSpace=wrap;html=1;" parent="1" vertex="1">
          <mxGeometry x="760" y="430" width="140" height="80" as="geometry" />
        </mxCell>
        <mxCell id="YYWawuFabs4Q9kmvaKkn-53" value="Accept one part of complex tour request" style="text;html=1;align=center;verticalAlign=middle;whiteSpace=wrap;rounded=0;" parent="1" vertex="1">
          <mxGeometry x="785" y="455" width="90" height="30" as="geometry" />
        </mxCell>
        <mxCell id="YYWawuFabs4Q9kmvaKkn-54" value="" style="endArrow=none;html=1;rounded=0;entryX=1.009;entryY=0.33;entryDx=0;entryDy=0;entryPerimeter=0;" parent="1" target="YYWawuFabs4Q9kmvaKkn-52" edge="1">
          <mxGeometry width="50" height="50" relative="1" as="geometry">
            <mxPoint x="1010" y="410" as="sourcePoint" />
            <mxPoint x="806" y="355" as="targetPoint" />
          </mxGeometry>
        </mxCell>
        <mxCell id="YYWawuFabs4Q9kmvaKkn-55" value="Find all available dates for part of tour request&amp;nbsp;" style="text;html=1;align=center;verticalAlign=middle;whiteSpace=wrap;rounded=0;" parent="1" vertex="1">
          <mxGeometry x="475" y="510" width="90" height="30" as="geometry" />
        </mxCell>
        <mxCell id="YYWawuFabs4Q9kmvaKkn-56" value="" style="html=1;labelBackgroundColor=#ffffff;startArrow=none;startFill=0;startSize=6;endArrow=classic;endFill=1;endSize=6;jettySize=auto;orthogonalLoop=1;strokeWidth=1;dashed=1;fontSize=14;rounded=0;entryX=1.017;entryY=0.402;entryDx=0;entryDy=0;exitX=0.003;exitY=0.7;exitDx=0;exitDy=0;entryPerimeter=0;exitPerimeter=0;" parent="1" source="YYWawuFabs4Q9kmvaKkn-52" target="YYWawuFabs4Q9kmvaKkn-24" edge="1">
          <mxGeometry width="60" height="60" relative="1" as="geometry">
            <mxPoint x="750" y="430" as="sourcePoint" />
            <mxPoint x="580" y="495" as="targetPoint" />
          </mxGeometry>
        </mxCell>
        <mxCell id="YYWawuFabs4Q9kmvaKkn-57" value="&amp;lt;&amp;lt;include&amp;gt;&amp;gt;" style="text;html=1;align=center;verticalAlign=middle;whiteSpace=wrap;rounded=0;rotation=0;" parent="1" vertex="1">
          <mxGeometry x="650" y="470" width="60" height="30" as="geometry" />
        </mxCell>
        <mxCell id="YYWawuFabs4Q9kmvaKkn-59" value="" style="endArrow=none;html=1;rounded=0;entryX=0.065;entryY=0.255;entryDx=0;entryDy=0;entryPerimeter=0;" parent="1" target="YYWawuFabs4Q9kmvaKkn-58" edge="1">
          <mxGeometry width="50" height="50" relative="1" as="geometry">
            <mxPoint x="140" y="490" as="sourcePoint" />
            <mxPoint x="620" y="610" as="targetPoint" />
          </mxGeometry>
        </mxCell>
        <mxCell id="YYWawuFabs4Q9kmvaKkn-67" value="" style="ellipse;whiteSpace=wrap;html=1;" parent="1" vertex="1">
          <mxGeometry x="355" y="890" width="145" height="90" as="geometry" />
        </mxCell>
        <mxCell id="YYWawuFabs4Q9kmvaKkn-68" value="" style="endArrow=none;html=1;rounded=0;entryX=0.054;entryY=0.293;entryDx=0;entryDy=0;entryPerimeter=0;" parent="1" target="YYWawuFabs4Q9kmvaKkn-67" edge="1">
          <mxGeometry width="50" height="50" relative="1" as="geometry">
            <mxPoint x="140" y="490" as="sourcePoint" />
            <mxPoint x="374" y="823" as="targetPoint" />
          </mxGeometry>
        </mxCell>
        <mxCell id="YYWawuFabs4Q9kmvaKkn-69" value="Check if all parts of complex tour request are accepted" style="text;html=1;align=center;verticalAlign=middle;whiteSpace=wrap;rounded=0;" parent="1" vertex="1">
          <mxGeometry x="385" y="920" width="85" height="30" as="geometry" />
        </mxCell>
        <mxCell id="5htlpPcBGPJlswbUN-kt-4" value="" style="html=1;labelBackgroundColor=#ffffff;startArrow=none;startFill=0;startSize=6;endArrow=classic;endFill=1;endSize=6;jettySize=auto;orthogonalLoop=1;strokeWidth=1;dashed=1;fontSize=14;rounded=0;entryX=0.643;entryY=0.035;entryDx=0;entryDy=0;entryPerimeter=0;" edge="1" parent="1" source="5htlpPcBGPJlswbUN-kt-5" target="YYWawuFabs4Q9kmvaKkn-1">
          <mxGeometry width="60" height="60" relative="1" as="geometry">
            <mxPoint x="470" y="40" as="sourcePoint" />
            <mxPoint x="301" y="99" as="targetPoint" />
          </mxGeometry>
        </mxCell>
        <mxCell id="5htlpPcBGPJlswbUN-kt-5" value="Create another part of complex tour request" style="ellipse;whiteSpace=wrap;html=1;" vertex="1" parent="1">
          <mxGeometry x="400" y="-10" width="120" height="80" as="geometry" />
        </mxCell>
        <mxCell id="5htlpPcBGPJlswbUN-kt-6" value="&amp;lt;&amp;lt;extend&amp;gt;&amp;gt;" style="text;html=1;align=center;verticalAlign=middle;whiteSpace=wrap;rounded=0;rotation=-30;" vertex="1" parent="1">
          <mxGeometry x="317.5" y="70" width="60" height="30" as="geometry" />
        </mxCell>
        <mxCell id="5htlpPcBGPJlswbUN-kt-7" value="" style="html=1;labelBackgroundColor=#ffffff;startArrow=none;startFill=0;startSize=6;endArrow=classic;endFill=1;endSize=6;jettySize=auto;orthogonalLoop=1;strokeWidth=1;dashed=1;fontSize=14;rounded=0;entryX=0.981;entryY=0.382;entryDx=0;entryDy=0;exitX=0.386;exitY=0.97;exitDx=0;exitDy=0;entryPerimeter=0;exitPerimeter=0;" edge="1" parent="1" source="YYWawuFabs4Q9kmvaKkn-52" target="YYWawuFabs4Q9kmvaKkn-67">
          <mxGeometry width="60" height="60" relative="1" as="geometry">
            <mxPoint x="708" y="692.5" as="sourcePoint" />
            <mxPoint x="530" y="723.5" as="targetPoint" />
          </mxGeometry>
        </mxCell>
        <mxCell id="5htlpPcBGPJlswbUN-kt-8" value="&amp;lt;&amp;lt;include&amp;gt;&amp;gt;" style="text;html=1;align=center;verticalAlign=middle;whiteSpace=wrap;rounded=0;rotation=-55;" vertex="1" parent="1">
          <mxGeometry x="590" y="700" width="60" height="30" as="geometry" />
        </mxCell>
        <mxCell id="5htlpPcBGPJlswbUN-kt-9" value="" style="html=1;labelBackgroundColor=#ffffff;startArrow=none;startFill=0;startSize=6;endArrow=classic;endFill=1;endSize=6;jettySize=auto;orthogonalLoop=1;strokeWidth=1;dashed=1;fontSize=14;rounded=0;exitX=0;exitY=0.5;exitDx=0;exitDy=0;" edge="1" parent="1" source="5htlpPcBGPJlswbUN-kt-10" target="5htlpPcBGPJlswbUN-kt-5">
          <mxGeometry width="60" height="60" relative="1" as="geometry">
            <mxPoint x="660.5" y="-10" as="sourcePoint" />
            <mxPoint x="539.5" y="74" as="targetPoint" />
          </mxGeometry>
        </mxCell>
        <mxCell id="5htlpPcBGPJlswbUN-kt-10" value="Add another tourist&amp;nbsp;" style="ellipse;whiteSpace=wrap;html=1;" vertex="1" parent="1">
          <mxGeometry x="700" y="-10" width="120" height="80" as="geometry" />
        </mxCell>
        <mxCell id="5htlpPcBGPJlswbUN-kt-11" value="&amp;lt;&amp;lt;extend&amp;gt;&amp;gt;" style="text;html=1;align=center;verticalAlign=middle;whiteSpace=wrap;rounded=0;rotation=0;" vertex="1" parent="1">
          <mxGeometry x="580.0007621135331" y="-9.999618943233415" width="60" height="30" as="geometry" />
        </mxCell>
      </root>
    </mxGraphModel>
  </diagram>
</mxfile>
